<svg xmlns="http://www.w3.org/2000/svg" width="647" height="1057" viewBox="0 0 647 1057">
  <defs>
    <style>
      .cls-1 {
        fill-rule: evenodd;
      }
    </style>
  </defs>
  <path id="LOGO" class="cls-1" d="M68,107c-9.333,38.5,32.5,121,75,176S314.5,449.5,311,512s-38.333,95-51,110-93.563,98.912-133,179c-43.667,88.678-53.333,192,35,190,162-13,121.75-331.75,162-372v438H9S1.026,957.435,55,824,273.543,572.39,272.543,511.89,142.463,372.936,66,241,1,0,1,0H324V414c-10,0-46-74.133-46-101V84c0-6.119-2-9-9-9H105C94.2,75,73.333,88.5,68,107Zm511.219,0c9.333,38.5-32.5,121-75,176s-171.5,166.5-168,229,38.333,95,51,110,93.562,98.912,133,179c43.667,88.678,53.333,192-35,190-162-13-121.75-331.75-162-372v438h315s7.973-99.565-46-233S373.676,572.39,374.676,511.89,504.756,372.936,581.219,241s65-241,65-241h-323V414c10,0,46-74.133,46-101V84c0-6.119,2-9,9-9h164C553.019,75,573.885,88.5,579.219,107Z"/>
</svg>
