<svg xmlns="http://www.w3.org/2000/svg" height="24px" viewBox="0 -960 960 960" width="24px" fill="#000"><path d="M674.59-90q-48.09 0-81.84-33.69T559-205.5q0-8 3.5-28l-278-162q-15.5 14.5-35.86 23Q228.27-364 205-364q-47.92 0-81.46-33.66Q90-431.32 90-479.41t33.54-82.09q33.54-34 81.46-34 23.5 0 43.59 8.23 20.1 8.24 35.41 22.77l278.5-162.08q-2-6.92-2.75-13.42t-.75-14.5q0-48.13 33.66-81.81Q626.32-870 674.41-870t81.84 33.69Q790-802.63 790-754.5q0 48.33-33.69 82.17-33.68 33.83-81.81 33.83-23.27 0-43.63-8.5-20.36-8.5-35.87-23.5l-278 162q2 7.5 2.75 14.25t.75 14.61q0 7.86-.5 14.25t-2.5 13.33L595-289.5q15.51-15 35.87-23.5t43.63-8.5q48.13 0 81.81 33.76 33.69 33.77 33.69 82 0 48.24-33.66 81.99Q722.68-90 674.59-90Zm-.09-75q17.21 0 28.86-11.64Q715-188.29 715-205.5q0-17-11.64-29-11.65-12-28.86-12t-28.86 12q-11.64 12-11.64 29t11.64 28.75Q657.29-165 674.5-165ZM205-439q17 0 28.75-11.64 11.75-11.65 11.75-28.86 0-17-11.64-29-11.65-12-28.86-12-17 0-28.5 12t-11.5 29q0 17 11.5 28.75T205-439Zm469.5-274.5q17.21 0 28.86-12 11.64-12 11.64-29t-11.64-28.75Q691.71-795 674.5-795t-28.86 11.64Q634-771.71 634-754.5q0 17 11.64 29 11.65 12 28.86 12Zm0 507.5Zm-469-274Zm469-274.5Z"/></svg>